<?xml version="1.0" standalone="no"?>
<!DOCTYPE svg PUBLIC "-//W3C//DTD SVG 20010904//EN"
 "http://www.w3.org/TR/2001/REC-SVG-20010904/DTD/svg10.dtd">
<svg version="1.0" xmlns="http://www.w3.org/2000/svg"
 width="1350.000000pt" height="1350.000000pt" viewBox="0 0 1350.000000 1350.000000"
 preserveAspectRatio="xMidYMid meet">
<metadata>
Created by potrace 1.10, written by Peter Selinger 2001-2011
</metadata>
<g transform="translate(0.000000,1350.000000) scale(0.100000,-0.100000)"
fill="#ffffff" stroke="none">
<path d="M5911 8486 c-8 -10 -4 -30 18 -82 34 -81 106 -256 150 -366 29 -72
30 -80 17 -105 -24 -47 -227 -346 -252 -373 -30 -31 -20 -42 -176 190 -260
387 -284 420 -299 420 -4 0 -32 -51 -63 -112 -30 -62 -74 -142 -98 -178 -50
-77 -214 -243 -281 -285 -26 -17 -50 -38 -53 -48 -7 -21 -4 -24 244 -393 105
-157 192 -293 192 -303 0 -25 -61 -114 -523 -769 -26 -37 -72 -103 -102 -147
-31 -44 -91 -129 -135 -190 -43 -60 -104 -146 -135 -190 -31 -44 -86 -123
-123 -175 -97 -136 -157 -222 -231 -329 -60 -88 -63 -95 -46 -107 15 -11 108
-13 488 -11 l469 2 28 34 c29 34 253 354 476 681 25 36 73 106 109 155 35 50
96 137 136 195 40 58 80 110 88 117 21 15 30 7 98 -91 102 -148 139 -200 203
-291 35 -49 117 -166 181 -260 65 -93 132 -190 149 -215 18 -25 67 -97 111
-160 44 -63 93 -127 109 -142 l30 -28 645 0 c354 0 654 4 667 9 13 5 31 24 40
42 25 49 258 603 258 612 0 4 13 35 29 70 16 34 56 127 89 207 33 80 95 228
137 330 42 102 117 282 167 400 50 118 124 296 165 395 42 99 87 205 101 235
13 30 28 66 32 80 6 19 130 313 202 480 22 51 39 92 157 370 67 157 121 293
121 303 0 10 -11 22 -26 27 -34 13 -788 13 -835 0 -39 -11 -44 -18 -89 -140
-15 -41 -58 -151 -94 -245 -37 -93 -80 -206 -97 -250 -17 -44 -37 -98 -46
-120 -8 -22 -21 -57 -29 -77 -21 -56 -38 -101 -87 -228 -24 -63 -59 -153 -76
-200 -18 -47 -38 -101 -46 -120 -8 -19 -26 -66 -40 -105 -15 -38 -42 -110 -61
-160 -20 -49 -41 -106 -49 -125 -7 -19 -27 -71 -45 -115 -18 -44 -38 -97 -46
-117 -8 -21 -20 -55 -28 -75 -43 -112 -76 -200 -80 -216 -4 -10 -12 -17 -19
-15 -15 6 -28 32 -63 123 -14 39 -41 108 -59 155 -18 47 -45 117 -60 155 -15
39 -42 108 -60 155 -62 159 -114 295 -150 390 -20 52 -43 113 -52 135 -8 22
-21 56 -28 75 -7 19 -27 71 -45 115 -18 44 -38 96 -45 115 -19 53 -41 110 -58
155 -9 22 -21 57 -28 77 -14 42 -25 23 161 283 244 341 255 359 229 376 -8 5
-351 9 -770 9 -626 0 -759 -2 -768 -14z m630 -1552 c26 -60 81 -192 124 -294
42 -102 110 -264 151 -360 41 -96 74 -178 74 -182 0 -25 -30 9 -134 155 -64
89 -173 239 -241 332 -173 236 -185 254 -178 273 7 20 88 138 116 170 12 12
26 21 31 19 6 -2 32 -53 57 -113z"/>
</g>
</svg>
