<?xml version="1.0" standalone="no"?>
<!DOCTYPE svg PUBLIC "-//W3C//DTD SVG 20010904//EN"
 "http://www.w3.org/TR/2001/REC-SVG-20010904/DTD/svg10.dtd">
<svg version="1.0" xmlns="http://www.w3.org/2000/svg"
 width="300.000000pt" height="300.000000pt" viewBox="0 0 300.000000 300.000000"
 preserveAspectRatio="xMidYMid meet">
<metadata>
Created by potrace 1.10, written by Peter Selinger 2001-2011
</metadata>
<g transform="translate(0.000000,300.000000) scale(0.100000,-0.100000)"
fill="#000000" stroke="none">
<path d="M0 1500 l0 -1500 1500 0 1500 0 0 1500 0 1500 -1500 0 -1500 0 0
-1500z m1660 385 c0 -2 -21 -34 -46 -70 l-47 -66 68 -177 c38 -97 72 -181 76
-185 6 -8 41 77 154 376 l48 127 99 0 c54 0 98 -3 98 -7 0 -5 -73 -182 -162
-395 l-162 -388 -152 0 -151 0 -87 124 c-47 69 -90 127 -95 131 -5 3 -51 -53
-101 -125 l-91 -130 -110 0 c-84 0 -108 3 -103 12 4 7 68 97 142 202 73 104
136 195 139 202 2 7 -18 46 -46 88 l-51 75 30 21 c17 12 43 44 59 71 l28 49
47 -70 c27 -39 50 -70 52 -70 1 0 17 20 34 45 l30 44 -24 61 -25 60 175 0 c96
0 174 -2 174 -5z"/>
<path d="M1425 1547 c-16 -25 -15 -27 46 -109 34 -46 59 -76 56 -68 -8 25 -79
195 -82 198 -2 2 -11 -8 -20 -21z"/>
</g>
</svg>
